BodoniModa-6ptRegular.ufo
<glyph name="four" format="2">
  <advance width="1189"/>
  <unicode hex="0034"/>
  <outline>
    <contour>
      <point x="570" y="0" type="line"/>
      <point x="1100" y="0" type="line"/>
      <point x="1100" y="73" type="line"/>
      <point x="950" y="73" type="line"/>
      <point x="950" y="1500" type="line"/>
      <point x="790" y="1500" type="line"/>
      <point x="59" y="394" type="line"/>
      <point x="1170" y="394" type="line"/>
      <point x="1170" y="467" type="line"/>
      <point x="196" y="467" type="line"/>
      <point x="760" y="1316" type="line"/>
      <point x="760" y="73" type="line"/>
      <point x="570" y="73" type="line"/>
    </contour>
  </outline>
</glyph>
<glyph name="seven" format="2">
  <advance width="1009"/>
  <unicode hex="0037"/>
  <outline>
    <contour>
      <point x="468" y="-20" type="curve" smooth="yes"/>
      <point x="556" y="-20"/>
      <point x="596" y="42"/>
      <point x="596" y="116" type="curve" smooth="yes"/>
      <point x="596" y="208"/>
      <point x="510" y="238"/>
      <point x="510" y="384" type="curve" smooth="yes"/>
      <point x="510" y="472"/>
      <point x="526" y="548"/>
      <point x="618" y="736" type="curve" smooth="yes"/>
      <point x="755" y="1013"/>
      <point x="990" y="1500"/>
      <point x="990" y="1500" type="curve"/>
      <point x="80" y="1500" type="line"/>
      <point x="80" y="1160" type="line"/>
      <point x="153" y="1160" type="line"/>
      <point x="153" y="1311" type="line"/>
      <point x="812" y="1311" type="line"/>
      <point x="730" y="1137"/>
      <point x="608" y="886"/>
      <point x="530" y="736" type="curve" smooth="yes"/>
      <point x="419" y="518"/>
      <point x="336" y="310"/>
      <point x="336" y="152" type="curve" smooth="yes"/>
      <point x="336" y="13"/>
      <point x="390" y="-20"/>
    </contour>
  </outline>
</glyph>
<glyph name="question" format="2">
  <advance width="1099"/>
  <unicode hex="003F"/>
  <outline>
    <contour>
      <point x="457" y="418" type="line"/>
      <point x="531" y="418" type="line"/>
      <point x="531" y="672" type="line"/>
      <point x="813" y="690"/>
      <point x="1000" y="890"/>
      <point x="1000" y="1120" type="curve" smooth="yes"/>
      <point x="1000" y="1360"/>
      <point x="814" y="1520"/>
      <point x="532" y="1520" type="curve" smooth="yes"/>
      <point x="307" y="1520"/>
      <point x="120" y="1346"/>
      <point x="120" y="1182" type="curve" smooth="yes"/>
      <point x="120" y="1100"/>
      <point x="173" y="1059"/>
      <point x="234" y="1059" type="curve" smooth="yes"/>
      <point x="284" y="1059"/>
      <point x="348" y="1090"/>
      <point x="348" y="1170" type="curve" smooth="yes"/>
      <point x="348" y="1240"/>
      <point x="293" y="1279"/>
      <point x="234" y="1279" type="curve" smooth="yes"/>
      <point x="177" y="1279"/>
      <point x="122" y="1242"/>
      <point x="122" y="1182" type="curve"/>
      <point x="195" y="1182" type="line"/>
      <point x="195" y="1312"/>
      <point x="334" y="1449"/>
      <point x="512" y="1449" type="curve" smooth="yes"/>
      <point x="750" y="1449"/>
      <point x="798" y="1308"/>
      <point x="798" y="1120" type="curve" smooth="yes"/>
      <point x="798" y="934"/>
      <point x="671" y="770"/>
      <point x="457" y="708" type="curve"/>
    </contour>
    <contour>
      <point x="498" y="-20" type="curve" smooth="yes"/>
      <point x="564" y="-20"/>
      <point x="618" y="34"/>
      <point x="618" y="100" type="curve" smooth="yes"/>
      <point x="618" y="166"/>
      <point x="564" y="221"/>
      <point x="498" y="221" type="curve" smooth="yes"/>
      <point x="432" y="221"/>
      <point x="378" y="166"/>
      <point x="378" y="100" type="curve" smooth="yes"/>
      <point x="378" y="34"/>
      <point x="432" y="-20"/>
    </contour>
  </outline>
</glyph>
<glyph name="F" format="2">
  <advance width="1265"/>
  <unicode hex="0046"/>
  <anchor x="376" y="0" name="bottom"/>
  <anchor x="674" y="1500" name="top"/>
  <outline>
    <contour>
      <point x="776" y="536" type="curve"/>
      <point x="850" y="536" type="line"/>
      <point x="850" y="945" type="line"/>
      <point x="776" y="945" type="line"/>
      <point x="776" y="811"/>
      <point x="721" y="782"/>
      <point x="547" y="782" type="curve" smooth="yes"/>
      <point x="416" y="782" type="line"/>
      <point x="416" y="710" type="line"/>
      <point x="547" y="710" type="line" smooth="yes"/>
      <point x="721" y="710"/>
      <point x="776" y="670"/>
    </contour>
    <contour>
      <point x="1149" y="1500" type="line"/>
      <point x="86" y="1500" type="line"/>
      <point x="86" y="1427" type="line"/>
      <point x="267" y="1427" type="line"/>
      <point x="267" y="73" type="line"/>
      <point x="86" y="73" type="line"/>
      <point x="86" y="0" type="line"/>
      <point x="656" y="0" type="line"/>
      <point x="656" y="73" type="line"/>
      <point x="457" y="73" type="line"/>
      <point x="457" y="1427" type="line"/>
      <point x="776" y="1427" type="line" smooth="yes"/>
      <point x="1010" y="1427"/>
      <point x="1076" y="1304"/>
      <point x="1076" y="1090" type="curve"/>
      <point x="1149" y="1090" type="line"/>
    </contour>
  </outline>
</glyph>
<glyph name="L" format="2">
  <advance width="1275"/>
  <unicode hex="004C"/>
  <anchor x="616" y="0" name="bottom"/>
  <anchor x="616" y="0" name="cedilla"/>
  <anchor x="364" y="750" name="center"/>
  <anchor x="364" y="1500" name="top"/>
  <anchor x="789" y="943" name="topright"/>
  <outline>
    <contour>
      <point x="86" y="0" type="line"/>
      <point x="1180" y="0" type="line"/>
      <point x="1180" y="450" type="line"/>
      <point x="1106" y="450" type="line"/>
      <point x="1106" y="196"/>
      <point x="1081" y="73"/>
      <point x="767" y="73" type="curve" smooth="yes"/>
      <point x="457" y="73" type="line"/>
      <point x="457" y="1427" type="line"/>
      <point x="637" y="1427" type="line"/>
      <point x="637" y="1500" type="line"/>
      <point x="86" y="1500" type="line"/>
      <point x="86" y="1427" type="line"/>
      <point x="267" y="1427" type="line"/>
      <point x="267" y="73" type="line"/>
      <point x="86" y="73" type="line"/>
    </contour>
  </outline>
</glyph>
<glyph name="R" format="2">
  <advance width="1492"/>
  <unicode hex="0052"/>
  <anchor x="776" y="0" name="bottom"/>
  <anchor x="396" y="0" name="cedilla"/>
  <anchor x="686" y="1500" name="top"/>
  <outline>
    <contour>
      <point x="446" y="740" type="line"/>
      <point x="746" y="740" type="line" smooth="yes"/>
      <point x="1068" y="740"/>
      <point x="1246" y="845"/>
      <point x="1246" y="1105" type="curve" smooth="yes"/>
      <point x="1246" y="1365"/>
      <point x="1048" y="1500"/>
      <point x="746" y="1500" type="curve" smooth="yes"/>
      <point x="86" y="1500" type="line"/>
      <point x="86" y="1427" type="line"/>
      <point x="746" y="1427" type="line" smooth="yes"/>
      <point x="937" y="1427"/>
      <point x="1047" y="1323"/>
      <point x="1047" y="1105" type="curve" smooth="yes"/>
      <point x="1047" y="887"/>
      <point x="937" y="781"/>
      <point x="746" y="781" type="curve" smooth="yes"/>
      <point x="446" y="781" type="line"/>
    </contour>
    <contour>
      <point x="86" y="0" type="line"/>
      <point x="717" y="0" type="line"/>
      <point x="717" y="73" type="line"/>
      <point x="86" y="73" type="line"/>
    </contour>
    <contour>
      <point x="307" y="40" type="line"/>
      <point x="496" y="40" type="line"/>
      <point x="496" y="1450" type="line"/>
      <point x="307" y="1450" type="line"/>
    </contour>
    <contour>
      <point x="1236" y="-10" type="curve" smooth="yes"/>
      <point x="1308" y="-10"/>
      <point x="1384" y="3"/>
      <point x="1416" y="21" type="curve"/>
      <point x="1391" y="90" type="line"/>
      <point x="1364" y="78"/>
      <point x="1339" y="68"/>
      <point x="1297" y="68" type="curve" smooth="yes"/>
      <point x="1075" y="68"/>
      <point x="1422" y="746"/>
      <point x="776" y="746" type="curve" smooth="yes"/>
      <point x="446" y="746" type="line"/>
      <point x="446" y="709" type="line"/>
      <point x="736" y="709" type="line" smooth="yes"/>
      <point x="1228" y="709"/>
      <point x="770" y="-10"/>
    </contour>
  </outline>
</glyph>
<glyph name="S" format="2">
  <advance width="1187"/>
  <unicode hex="0053"/>
  <anchor x="635" y="0" name="bottom"/>
  <anchor x="606" y="1500" name="top"/>
  <outline>
    <contour>
      <point x="660" y="-29" type="curve" smooth="yes"/>
      <point x="942" y="-29"/>
      <point x="1119" y="140"/>
      <point x="1119" y="400" type="curve" smooth="yes"/>
      <point x="1119" y="940"/>
      <point x="335" y="840"/>
      <point x="335" y="1210" type="curve" smooth="yes"/>
      <point x="335" y="1349"/>
      <point x="432" y="1441"/>
      <point x="623" y="1441" type="curve" smooth="yes"/>
      <point x="811" y="1441"/>
      <point x="960" y="1332"/>
      <point x="1000" y="1109" type="curve"/>
      <point x="1072" y="1109" type="line"/>
      <point x="1072" y="1520" type="line"/>
      <point x="1010" y="1520" type="line"/>
      <point x="931" y="1397" type="line"/>
      <point x="846" y="1478"/>
      <point x="732" y="1520"/>
      <point x="604" y="1520" type="curve" smooth="yes"/>
      <point x="368" y="1520"/>
      <point x="189" y="1371"/>
      <point x="189" y="1150" type="curve" smooth="yes"/>
      <point x="189" y="630"/>
      <point x="975" y="740"/>
      <point x="975" y="330" type="curve" smooth="yes"/>
      <point x="975" y="151"/>
      <point x="852" y="47"/>
      <point x="640" y="47" type="curve" smooth="yes"/>
      <point x="397" y="47"/>
      <point x="249" y="193"/>
      <point x="209" y="391" type="curve"/>
      <point x="137" y="391" type="line"/>
      <point x="137" y="-20" type="line"/>
      <point x="199" y="-20" type="line"/>
      <point x="277" y="117" type="line"/>
      <point x="367" y="27"/>
      <point x="495" y="-29"/>
    </contour>
  </outline>
</glyph>
<glyph name="W" format="2">
  <advance width="2077"/>
  <unicode hex="0057"/>
  <anchor x="1056" y="0" name="bottom"/>
  <anchor x="1096" y="1500" name="top"/>
  <outline>
    <contour>
      <point x="724" y="-20" type="line"/>
      <point x="804" y="-20" type="line"/>
      <point x="1077" y="791" type="line"/>
      <point x="1038" y="915" type="line"/>
      <point x="826" y="286" type="line"/>
      <point x="474" y="1427" type="line"/>
      <point x="843" y="1427" type="line"/>
      <point x="1293" y="-20" type="line"/>
      <point x="1373" y="-20" type="line"/>
      <point x="1858" y="1427" type="line"/>
      <point x="2004" y="1427" type="line"/>
      <point x="2004" y="1500" type="line"/>
      <point x="1621" y="1500" type="line"/>
      <point x="1621" y="1427" type="line"/>
      <point x="1777" y="1427" type="line"/>
      <point x="1395" y="286" type="line"/>
      <point x="1043" y="1427" type="line"/>
      <point x="1521" y="1427" type="line"/>
      <point x="1521" y="1500" type="line"/>
      <point x="73" y="1500" type="line"/>
      <point x="73" y="1427" type="line"/>
      <point x="275" y="1427" type="line"/>
    </contour>
    <contour>
      <point x="1166" y="941" type="line"/>
      <point x="1336" y="1450" type="line"/>
      <point x="1261" y="1471" type="line"/>
      <point x="1104" y="996" type="line"/>
    </contour>
  </outline>
</glyph>
<glyph name="backslash" format="2">
  <advance width="1072"/>
  <unicode hex="005C"/>
  <outline>
    <contour>
      <point x="910" y="-300" type="line"/>
      <point x="993" y="-300" type="line"/>
      <point x="163" y="1561" type="line"/>
      <point x="80" y="1561" type="line"/>
    </contour>
  </outline>
</glyph>
<glyph name="bracketright" format="2">
  <advance width="649"/>
  <unicode hex="005D"/>
  <outline>
    <contour>
      <point x="360" y="-301" type="line"/>
      <point x="541" y="-301" type="line"/>
      <point x="541" y="1560" type="line"/>
      <point x="360" y="1560" type="line"/>
    </contour>
    <contour>
      <point x="60" y="-301" type="line"/>
      <point x="541" y="-301" type="line"/>
      <point x="541" y="-226" type="line"/>
      <point x="60" y="-226" type="line"/>
    </contour>
    <contour>
      <point x="60" y="1487" type="line"/>
      <point x="541" y="1487" type="line"/>
      <point x="541" y="1560" type="line"/>
      <point x="60" y="1560" type="line"/>
    </contour>
  </outline>
</glyph>
<glyph name="h" format="2">
  <advance width="1223"/>
  <unicode hex="0068"/>
  <anchor x="618" y="0" name="bottom"/>
  <anchor x="600" y="1420" name="top"/>
  <outline>
    <contour>
      <point x="82" y="0" type="line"/>
      <point x="541" y="0" type="line"/>
      <point x="541" y="73" type="line"/>
      <point x="402" y="73" type="line"/>
      <point x="402" y="1500" type="line"/>
      <point x="82" y="1500" type="line"/>
      <point x="82" y="1427" type="line"/>
      <point x="222" y="1427" type="line"/>
      <point x="222" y="73" type="line"/>
      <point x="82" y="73" type="line"/>
    </contour>
    <contour>
      <point x="691" y="0" type="line"/>
      <point x="1143" y="0" type="line"/>
      <point x="1143" y="73" type="line"/>
      <point x="1002" y="73" type="line"/>
      <point x="1002" y="639" type="line" smooth="yes"/>
      <point x="1002" y="813"/>
      <point x="962" y="939"/>
      <point x="737" y="939" type="curve" smooth="yes"/>
      <point x="505" y="939"/>
      <point x="357" y="616"/>
      <point x="357" y="451" type="curve"/>
      <point x="402" y="451" type="line"/>
      <point x="402" y="618"/>
      <point x="558" y="852"/>
      <point x="709" y="852" type="curve" smooth="yes"/>
      <point x="816" y="852"/>
      <point x="832" y="770"/>
      <point x="832" y="602" type="curve" smooth="yes"/>
      <point x="832" y="73" type="line"/>
      <point x="691" y="73" type="line"/>
    </contour>
  </outline>
</glyph>
<glyph name="i" format="2">
  <advance width="643"/>
  <unicode hex="0069"/>
  <anchor x="325" y="0" name="bottom"/>
  <anchor x="325" y="0" name="cedilla"/>
  <outline>
    <contour>
      <point x="322" y="1269" type="curve" smooth="yes"/>
      <point x="388" y="1269"/>
      <point x="442" y="1324"/>
      <point x="442" y="1390" type="curve" smooth="yes"/>
      <point x="442" y="1456"/>
      <point x="388" y="1510"/>
      <point x="322" y="1510" type="curve" smooth="yes"/>
      <point x="256" y="1510"/>
      <point x="202" y="1456"/>
      <point x="202" y="1390" type="curve" smooth="yes"/>
      <point x="202" y="1324"/>
      <point x="256" y="1269"/>
    </contour>
    <contour>
      <point x="412" y="920" type="line"/>
      <point x="92" y="920" type="line"/>
      <point x="92" y="847" type="line"/>
      <point x="232" y="847" type="line"/>
      <point x="232" y="73" type="line"/>
      <point x="92" y="73" type="line"/>
      <point x="92" y="0" type="line"/>
      <point x="552" y="0" type="line"/>
      <point x="552" y="73" type="line"/>
      <point x="412" y="73" type="line"/>
    </contour>
  </outline>
</glyph>
<glyph name="k" format="2">
  <advance width="1235"/>
  <unicode hex="006B"/>
  <anchor x="636" y="0" name="bottom"/>
  <anchor x="796" y="920" name="top"/>
  <outline>
    <contour>
      <point x="82" y="0" type="line"/>
      <point x="582" y="0" type="line"/>
      <point x="582" y="73" type="line"/>
      <point x="441" y="73" type="line"/>
      <point x="441" y="1500" type="line"/>
      <point x="82" y="1500" type="line"/>
      <point x="82" y="1427" type="line"/>
      <point x="262" y="1427" type="line"/>
      <point x="262" y="73" type="line"/>
      <point x="82" y="73" type="line"/>
    </contour>
    <contour>
      <point x="699" y="0" type="line"/>
      <point x="1174" y="0" type="line"/>
      <point x="1174" y="73" type="line"/>
      <point x="1036" y="73" type="line"/>
      <point x="605" y="578" type="line"/>
      <point x="938" y="847" type="line"/>
      <point x="1105" y="847" type="line"/>
      <point x="1105" y="920" type="line"/>
      <point x="660" y="920" type="line"/>
      <point x="660" y="847" type="line"/>
      <point x="838" y="847" type="line"/>
      <point x="435" y="529" type="line"/>
      <point x="825" y="73" type="line"/>
      <point x="699" y="73" type="line"/>
    </contour>
  </outline>
</glyph>
<glyph name="l" format="2">
  <advance width="703"/>
  <unicode hex="006C"/>
  <anchor x="354" y="0" name="bottom"/>
  <anchor x="356" y="0" name="cedilla"/>
  <anchor x="352" y="800" name="center"/>
  <anchor x="348" y="1500" name="top"/>
  <anchor x="563" y="920" name="topright"/>
  <outline>
    <contour>
      <point x="441" y="1500" type="line"/>
      <point x="82" y="1500" type="line"/>
      <point x="82" y="1427" type="line"/>
      <point x="262" y="1427" type="line"/>
      <point x="262" y="73" type="line"/>
      <point x="82" y="73" type="line"/>
      <point x="82" y="0" type="line"/>
      <point x="621" y="0" type="line"/>
      <point x="621" y="73" type="line"/>
      <point x="441" y="73" type="line"/>
    </contour>
  </outline>
</glyph>
<glyph name="s" format="2">
  <advance width="869"/>
  <unicode hex="0073"/>
  <anchor x="416" y="0" name="bottom"/>
  <anchor x="416" y="920" name="top"/>
  <outline>
    <contour>
      <point x="82" y="-20" type="line"/>
      <point x="146" y="-20" type="line"/>
      <point x="212" y="65" type="line"/>
      <point x="274" y="13"/>
      <point x="353" y="-20"/>
      <point x="436" y="-20" type="curve" smooth="yes"/>
      <point x="616" y="-20"/>
      <point x="752" y="92"/>
      <point x="752" y="270" type="curve" smooth="yes"/>
      <point x="752" y="582"/>
      <point x="240" y="537"/>
      <point x="240" y="737" type="curve" smooth="yes"/>
      <point x="240" y="811"/>
      <point x="307" y="861"/>
      <point x="383" y="861" type="curve" smooth="yes"/>
      <point x="526" y="861"/>
      <point x="626" y="765"/>
      <point x="646" y="660" type="curve"/>
      <point x="720" y="660" type="line"/>
      <point x="720" y="939" type="line"/>
      <point x="656" y="939" type="line"/>
      <point x="596" y="863" type="line"/>
      <point x="539" y="908"/>
      <point x="464" y="938"/>
      <point x="381" y="938" type="curve" smooth="yes"/>
      <point x="192" y="938"/>
      <point x="115" y="813"/>
      <point x="115" y="685" type="curve" smooth="yes"/>
      <point x="115" y="357"/>
      <point x="607" y="454"/>
      <point x="607" y="205" type="curve" smooth="yes"/>
      <point x="607" y="112"/>
      <point x="520" y="57"/>
      <point x="415" y="57" type="curve" smooth="yes"/>
      <point x="292" y="57"/>
      <point x="196" y="158"/>
      <point x="156" y="284" type="curve"/>
      <point x="82" y="284" type="line"/>
    </contour>
  </outline>
</glyph>
<glyph name="t" format="2">
  <advance width="664"/>
  <unicode hex="0074"/>
  <anchor x="376" y="0" name="bottom"/>
  <anchor x="276" y="1130" name="top"/>
  <anchor x="444" y="1020" name="topright"/>
  <outline>
    <contour>
      <point x="390" y="-14" type="curve" smooth="yes"/>
      <point x="522" y="-14"/>
      <point x="575" y="42"/>
      <point x="633" y="131" type="curve"/>
      <point x="572" y="172" type="line"/>
      <point x="541" y="128"/>
      <point x="495" y="82"/>
      <point x="444" y="82" type="curve" smooth="yes"/>
      <point x="385" y="82"/>
      <point x="363" y="107"/>
      <point x="363" y="207" type="curve" smooth="yes"/>
      <point x="363" y="1180" type="line"/>
      <point x="323" y="1151"/>
      <point x="245" y="1120"/>
      <point x="184" y="1120" type="curve"/>
      <point x="184" y="223" type="line" smooth="yes"/>
      <point x="184" y="114"/>
      <point x="226" y="-14"/>
    </contour>
    <contour>
      <point x="62" y="847" type="line"/>
      <point x="577" y="847" type="line"/>
      <point x="577" y="920" type="line"/>
      <point x="62" y="920" type="line"/>
    </contour>
  </outline>
</glyph>
<glyph name="x" format="2">
  <advance width="1191"/>
  <unicode hex="0078"/>
  <anchor x="546" y="0" name="bottom"/>
  <anchor x="606" y="920" name="top"/>
  <outline>
    <contour>
      <point x="668" y="0" type="line"/>
      <point x="1130" y="0" type="line"/>
      <point x="1130" y="72" type="line"/>
      <point x="989" y="72" type="line"/>
      <point x="452" y="848" type="line"/>
      <point x="574" y="848" type="line"/>
      <point x="574" y="920" type="line"/>
      <point x="82" y="920" type="line"/>
      <point x="82" y="848" type="line"/>
      <point x="241" y="848" type="line"/>
      <point x="780" y="72" type="line"/>
      <point x="668" y="72" type="line"/>
    </contour>
    <contour>
      <point x="62" y="0" type="line"/>
      <point x="460" y="0" type="line"/>
      <point x="460" y="72" type="line"/>
      <point x="280" y="72" type="line"/>
      <point x="952" y="848" type="line"/>
      <point x="1100" y="848" type="line"/>
      <point x="1100" y="920" type="line"/>
      <point x="712" y="920" type="line"/>
      <point x="712" y="848" type="line"/>
      <point x="862" y="848" type="line"/>
      <point x="189" y="72" type="line"/>
      <point x="62" y="72" type="line"/>
    </contour>
  </outline>
</glyph>
<glyph name="bar" format="2">
  <advance width="493"/>
  <unicode hex="007C"/>
  <outline>
    <contour>
      <point x="210" y="-500" type="line"/>
      <point x="283" y="-500" type="line"/>
      <point x="283" y="1561" type="line"/>
      <point x="210" y="1561" type="line"/>
    </contour>
  </outline>
</glyph>
<glyph name="threequarters" format="2">
  <advance width="1401"/>
  <unicode hex="00BE"/>
  <outline>
    <contour>
      <point x="184" y="-200" type="line"/>
      <point x="257" y="-200" type="line"/>
      <point x="1188" y="1300" type="line"/>
      <point x="1115" y="1300" type="line"/>
    </contour>
    <contour>
      <point x="287.2" y="696" type="curve" smooth="yes"/>
      <point x="456.4" y="696"/>
      <point x="587.2" y="792"/>
      <point x="587.2" y="948" type="curve" smooth="yes"/>
      <point x="587.2" y="1080.6"/>
      <point x="518.8" y="1200"/>
      <point x="229.6" y="1200" type="curve"/>
      <point x="229.6" y="1173" type="line"/>
      <point x="432.4" y="1173"/>
      <point x="466" y="1036.8"/>
      <point x="466" y="948" type="curve" smooth="yes"/>
      <point x="466" y="835.2"/>
      <point x="406" y="737.4"/>
      <point x="263.2" y="737.4" type="curve" smooth="yes"/>
      <point x="157.6" y="737.4"/>
      <point x="85" y="796.8"/>
      <point x="85" y="868.8" type="curve"/>
      <point x="41.2" y="868.8" type="line"/>
      <point x="41.2" y="838.8"/>
      <point x="73.6" y="816"/>
      <point x="108.4" y="816" type="curve" smooth="yes"/>
      <point x="143.8" y="816"/>
      <point x="176.2" y="840.6"/>
      <point x="176.2" y="879" type="curve" smooth="yes"/>
      <point x="176.2" y="922.2"/>
      <point x="148.6" y="945.6"/>
      <point x="112" y="945.6" type="curve" smooth="yes"/>
      <point x="70" y="945.6"/>
      <point x="40" y="918"/>
      <point x="40" y="868.8" type="curve" smooth="yes"/>
      <point x="40" y="781.8"/>
      <point x="116.8" y="696"/>
    </contour>
    <contour>
      <point x="1002" y="-206" type="line"/>
      <point x="1320" y="-206" type="line"/>
      <point x="1320" y="-162.2" type="line"/>
      <point x="1230" y="-162.2" type="line"/>
      <point x="1230" y="694" type="line"/>
      <point x="1134" y="694" type="line"/>
      <point x="695.4" y="30.4" type="line"/>
      <point x="1362" y="30.4" type="line"/>
      <point x="1362" y="74.2" type="line"/>
      <point x="777.6" y="74.2" type="line"/>
      <point x="1116" y="583.6" type="line"/>
      <point x="1116" y="-162.2" type="line"/>
      <point x="1002" y="-162.2" type="line"/>
    </contour>
    <contour>
      <point x="229.6" y="1189.2" type="line"/>
      <point x="506.8" y="1189.2"/>
      <point x="551.2" y="1297.2"/>
      <point x="551.2" y="1417.2" type="curve" smooth="yes"/>
      <point x="551.2" y="1549.8"/>
      <point x="433" y="1618.8"/>
      <point x="299.2" y="1618.8" type="curve" smooth="yes"/>
      <point x="176.8" y="1618.8"/>
      <point x="75.4" y="1542"/>
      <point x="75.4" y="1455" type="curve" smooth="yes"/>
      <point x="75.4" y="1405.8"/>
      <point x="108.4" y="1380.6"/>
      <point x="145" y="1380.6" type="curve" smooth="yes"/>
      <point x="175" y="1380.6"/>
      <point x="212.8" y="1399.2"/>
      <point x="212.8" y="1447.2" type="curve" smooth="yes"/>
      <point x="212.8" y="1489.2"/>
      <point x="180.4" y="1510.8"/>
      <point x="145" y="1510.8" type="curve" smooth="yes"/>
      <point x="114.4" y="1510.8"/>
      <point x="76.6" y="1491"/>
      <point x="76.6" y="1455" type="curve"/>
      <point x="120.4" y="1455" type="line"/>
      <point x="120.4" y="1533"/>
      <point x="201.4" y="1576.8"/>
      <point x="281.2" y="1576.8" type="curve" smooth="yes"/>
      <point x="376" y="1576.8"/>
      <point x="430" y="1506"/>
      <point x="430" y="1417.2" type="curve" smooth="yes"/>
      <point x="430" y="1340.4"/>
      <point x="420.4" y="1216.2"/>
      <point x="229.6" y="1216.2" type="curve"/>
    </contour>
  </outline>
</glyph>
<glyph name="questiondown" format="2">
  <advance width="1099"/>
  <unicode hex="00BF"/>
  <outline>
    <contour>
      <point x="558" y="-480" type="curve" smooth="yes"/>
      <point x="783" y="-480"/>
      <point x="970" y="-306"/>
      <point x="970" y="-142" type="curve" smooth="yes"/>
      <point x="970" y="-60"/>
      <point x="917" y="-19"/>
      <point x="856" y="-19" type="curve" smooth="yes"/>
      <point x="806" y="-19"/>
      <point x="742" y="-50"/>
      <point x="742" y="-130" type="curve" smooth="yes"/>
      <point x="742" y="-200"/>
      <point x="797" y="-239"/>
      <point x="856" y="-239" type="curve" smooth="yes"/>
      <point x="913" y="-239"/>
      <point x="968" y="-202"/>
      <point x="968" y="-142" type="curve"/>
      <point x="895" y="-142" type="line"/>
      <point x="895" y="-272"/>
      <point x="756" y="-409"/>
      <point x="578" y="-409" type="curve" smooth="yes"/>
      <point x="340" y="-409"/>
      <point x="292" y="-268"/>
      <point x="292" y="-80" type="curve" smooth="yes"/>
      <point x="292" y="106"/>
      <point x="419" y="270"/>
      <point x="633" y="332" type="curve"/>
      <point x="633" y="622" type="line"/>
      <point x="559" y="622" type="line"/>
      <point x="559" y="368" type="line"/>
      <point x="277" y="350"/>
      <point x="90" y="150"/>
      <point x="90" y="-80" type="curve" smooth="yes"/>
      <point x="90" y="-320"/>
      <point x="276" y="-480"/>
    </contour>
    <contour>
      <point x="592" y="819" type="curve" smooth="yes"/>
      <point x="658" y="819"/>
      <point x="712" y="874"/>
      <point x="712" y="940" type="curve" smooth="yes"/>
      <point x="712" y="1006"/>
      <point x="658" y="1060"/>
      <point x="592" y="1060" type="curve" smooth="yes"/>
      <point x="526" y="1060"/>
      <point x="472" y="1006"/>
      <point x="472" y="940" type="curve" smooth="yes"/>
      <point x="472" y="874"/>
      <point x="526" y="819"/>
    </contour>
  </outline>
</glyph>
<glyph name="ae" format="2">
  <advance width="1569"/>
  <unicode hex="00E6"/>
  <outline>
    <contour>
      <point x="422" y="-20" type="curve" smooth="yes"/>
      <point x="608" y="-20"/>
      <point x="721" y="73"/>
      <point x="753" y="247" type="curve"/>
      <point x="735" y="244" type="line"/>
      <point x="792" y="75"/>
      <point x="923" y="-20"/>
      <point x="1104" y="-20" type="curve" smooth="yes"/>
      <point x="1317" y="-20"/>
      <point x="1448" y="88"/>
      <point x="1500" y="237" type="curve"/>
      <point x="1416" y="237" type="line"/>
      <point x="1366" y="126"/>
      <point x="1264" y="59"/>
      <point x="1113" y="59" type="curve" smooth="yes"/>
      <point x="915" y="59"/>
      <point x="863" y="231"/>
      <point x="863" y="460" type="curve" smooth="yes"/>
      <point x="863" y="485"/>
      <point x="863" y="510"/>
      <point x="865" y="534" type="curve"/>
      <point x="1473" y="534" type="line"/>
      <point x="1473" y="752"/>
      <point x="1369" y="939"/>
      <point x="1086" y="939" type="curve" smooth="yes"/>
      <point x="932" y="939"/>
      <point x="823" y="872"/>
      <point x="761" y="751" type="curve"/>
      <point x="782" y="753" type="line"/>
      <point x="761" y="856"/>
      <point x="698" y="936"/>
      <point x="517" y="936" type="curve" smooth="yes"/>
      <point x="335" y="936"/>
      <point x="162" y="856"/>
      <point x="162" y="732" type="curve" smooth="yes"/>
      <point x="162" y="660"/>
      <point x="204" y="622"/>
      <point x="265" y="622" type="curve" smooth="yes"/>
      <point x="315" y="622"/>
      <point x="383" y="656"/>
      <point x="383" y="736" type="curve" smooth="yes"/>
      <point x="383" y="790"/>
      <point x="337" y="835"/>
      <point x="285" y="835" type="curve"/>
      <point x="272" y="807"/>
      <point x="259" y="780"/>
      <point x="246" y="752" type="curve"/>
      <point x="295" y="822"/>
      <point x="390" y="869"/>
      <point x="477" y="869" type="curve" smooth="yes"/>
      <point x="637" y="869"/>
      <point x="653" y="743"/>
      <point x="653" y="609" type="curve" smooth="yes"/>
      <point x="653" y="539" type="line"/>
      <point x="529" y="539" type="line" smooth="yes"/>
      <point x="245" y="539"/>
      <point x="92" y="395"/>
      <point x="92" y="227" type="curve" smooth="yes"/>
      <point x="92" y="39"/>
      <point x="264" y="-20"/>
    </contour>
    <contour>
      <point x="461" y="84" type="curve" smooth="yes"/>
      <point x="365" y="84"/>
      <point x="295" y="122"/>
      <point x="295" y="256" type="curve" smooth="yes"/>
      <point x="295" y="365"/>
      <point x="377" y="466"/>
      <point x="529" y="466" type="curve" smooth="yes"/>
      <point x="653" y="466" type="line"/>
      <point x="653" y="361" type="line" smooth="yes"/>
      <point x="653" y="159"/>
      <point x="561" y="84"/>
    </contour>
    <contour>
      <point x="870" y="607" type="line"/>
      <point x="888" y="761"/>
      <point x="944" y="867"/>
      <point x="1086" y="867" type="curve" smooth="yes"/>
      <point x="1244" y="867"/>
      <point x="1259" y="718"/>
      <point x="1261" y="607" type="curve"/>
    </contour>
  </outline>
</glyph>
<glyph name="divide" format="2">
  <advance width="1119"/>
  <unicode hex="00F7"/>
  <outline>
    <contour>
      <point x="561" y="990" type="curve" smooth="yes"/>
      <point x="627" y="990"/>
      <point x="680" y="1044"/>
      <point x="680" y="1110" type="curve" smooth="yes"/>
      <point x="680" y="1176"/>
      <point x="627" y="1230"/>
      <point x="561" y="1230" type="curve" smooth="yes"/>
      <point x="495" y="1230"/>
      <point x="439" y="1176"/>
      <point x="439" y="1110" type="curve" smooth="yes"/>
      <point x="439" y="1044"/>
      <point x="495" y="990"/>
    </contour>
    <contour>
      <point x="100" y="734" type="line"/>
      <point x="1020" y="734" type="line"/>
      <point x="1020" y="806" type="line"/>
      <point x="100" y="806" type="line"/>
    </contour>
    <contour>
      <point x="561" y="280" type="curve" smooth="yes"/>
      <point x="627" y="280"/>
      <point x="680" y="334"/>
      <point x="680" y="400" type="curve" smooth="yes"/>
      <point x="680" y="466"/>
      <point x="627" y="520"/>
      <point x="561" y="520" type="curve" smooth="yes"/>
      <point x="495" y="520"/>
      <point x="439" y="466"/>
      <point x="439" y="400" type="curve" smooth="yes"/>
      <point x="439" y="334"/>
      <point x="495" y="280"/>
    </contour>
  </outline>
</glyph>
<glyph name="dcroat" format="2">
  <advance width="1239"/>
  <unicode hex="0111"/>
  <outline>
    <contour>
      <point x="548.646" y="1104" type="line"/>
      <point x="1195.23" y="1104" type="line"/>
      <point x="1195.23" y="1176" type="line"/>
      <point x="548.646" y="1176" type="line"/>
    </contour>
    <component base="d"/>
  </outline>
</glyph>
<glyph name="Tbar" format="2">
  <advance width="1428"/>
  <unicode hex="0166"/>
  <outline>
    <contour>
      <point x="427.002" y="714" type="line"/>
      <point x="1011.008" y="714" type="line"/>
      <point x="1011.008" y="786" type="line"/>
      <point x="427.002" y="786" type="line"/>
    </contour>
    <component base="T"/>
  </outline>
</glyph>
<glyph name="tbar" format="2">
  <advance width="664"/>
  <unicode hex="0167"/>
  <outline>
    <contour>
      <point x="63.737" y="574" type="line"/>
      <point x="586.683" y="574" type="line"/>
      <point x="586.683" y="646" type="line"/>
      <point x="63.737" y="646" type="line"/>
    </contour>
    <component base="t"/>
  </outline>
</glyph>
<glyph name="acutecomb" format="2">
  <unicode hex="0301"/>
  <anchor x="429" y="1500" name="_top"/>
  <outline>
    <contour>
      <point x="379" y="1670" type="line"/>
      <point x="631" y="1817" type="line" smooth="yes"/>
      <point x="663" y="1836"/>
      <point x="677" y="1882"/>
      <point x="658" y="1915" type="curve" smooth="yes"/>
      <point x="639" y="1948"/>
      <point x="588" y="1967"/>
      <point x="546" y="1926" type="curve" smooth="yes"/>
      <point x="334" y="1719" type="line"/>
    </contour>
  </outline>
</glyph>
<glyph name="tildecomb" format="2">
  <unicode hex="0303"/>
  <anchor x="496" y="1500" name="_top"/>
  <outline>
    <contour>
      <point x="646" y="1680" type="curve" smooth="yes"/>
      <point x="764" y="1680"/>
      <point x="848" y="1745"/>
      <point x="848" y="1934" type="curve"/>
      <point x="775" y="1934" type="line"/>
      <point x="775" y="1830"/>
      <point x="729" y="1796"/>
      <point x="663" y="1796" type="curve" smooth="yes"/>
      <point x="571" y="1796"/>
      <point x="548" y="1954"/>
      <point x="374" y="1954" type="curve" smooth="yes"/>
      <point x="276" y="1954"/>
      <point x="152" y="1870"/>
      <point x="152" y="1700" type="curve"/>
      <point x="226" y="1700" type="line"/>
      <point x="226" y="1804"/>
      <point x="271" y="1838"/>
      <point x="337" y="1838" type="curve" smooth="yes"/>
      <point x="442" y="1838"/>
      <point x="478" y="1680"/>
    </contour>
  </outline>
</glyph>
<glyph name="caroncomb" format="2">
  <unicode hex="030C"/>
  <anchor x="499" y="1500" name="_top"/>
  <outline>
    <contour>
      <point x="435" y="1700" type="line"/>
      <point x="565" y="1700" type="line"/>
      <point x="785" y="1921" type="line"/>
      <point x="748" y="1957" type="line"/>
      <point x="499" y="1790" type="line"/>
      <point x="252" y="1957" type="line"/>
      <point x="215" y="1921" type="line"/>
    </contour>
  </outline>
</glyph>
<glyph name="dotbelowcomb" format="2">
  <unicode hex="0323"/>
  <anchor x="500" y="0" name="_bottom"/>
  <outline>
    <contour>
      <point x="501" y="-410" type="curve" smooth="yes"/>
      <point x="567" y="-410"/>
      <point x="621" y="-355"/>
      <point x="621" y="-289" type="curve" smooth="yes"/>
      <point x="621" y="-223"/>
      <point x="567" y="-169"/>
      <point x="501" y="-169" type="curve" smooth="yes"/>
      <point x="435" y="-169"/>
      <point x="381" y="-223"/>
      <point x="381" y="-289" type="curve" smooth="yes"/>
      <point x="381" y="-355"/>
      <point x="435" y="-410"/>
    </contour>
  </outline>
</glyph>
<glyph name="cedillacomb" format="2">
  <unicode hex="0327"/>
  <anchor x="528" y="0" name="_bottom"/>
  <outline>
    <contour>
      <point x="345" y="-509" type="line"/>
      <point x="587" y="-509"/>
      <point x="683" y="-410"/>
      <point x="683" y="-310" type="curve" smooth="yes"/>
      <point x="683" y="-199"/>
      <point x="611" y="-154"/>
      <point x="466" y="-148" type="curve"/>
      <point x="586" y="12" type="line"/>
      <point x="496" y="12" type="line"/>
      <point x="317" y="-228" type="line"/>
      <point x="447" y="-228"/>
      <point x="541" y="-254"/>
      <point x="541" y="-336" type="curve" smooth="yes"/>
      <point x="541" y="-395"/>
      <point x="463" y="-437"/>
      <point x="345" y="-437" type="curve"/>
    </contour>
  </outline>
</glyph>
<glyph name="ogonekcomb" format="2">
  <unicode hex="0328"/>
  <anchor x="511" y="47" name="_ogonek"/>
  <outline>
    <contour>
      <point x="494" y="-372" type="curve" smooth="yes"/>
      <point x="637" y="-372"/>
      <point x="694" y="-284"/>
      <point x="723" y="-227" type="curve"/>
      <point x="676" y="-195" type="line"/>
      <point x="655" y="-237"/>
      <point x="616" y="-275"/>
      <point x="559" y="-275" type="curve" smooth="yes"/>
      <point x="491" y="-275"/>
      <point x="464" y="-224"/>
      <point x="464" y="-150" type="curve" smooth="yes"/>
      <point x="464" y="-64"/>
      <point x="519" y="13"/>
      <point x="581" y="47" type="curve"/>
      <point x="560" y="85" type="line"/>
      <point x="436" y="45"/>
      <point x="278" y="-41"/>
      <point x="278" y="-200" type="curve" smooth="yes"/>
      <point x="278" y="-320"/>
      <point x="392" y="-372"/>
    </contour>
  </outline>
</glyph>
<glyph name="pi" format="2">
  <advance width="1161"/>
  <unicode hex="03C0"/>
  <outline>
    <contour>
      <point x="82" y="590" type="line"/>
      <point x="155" y="590" type="line"/>
      <point x="155" y="740" type="line"/>
      <point x="1052" y="740" type="line"/>
      <point x="1052" y="920" type="line"/>
      <point x="82" y="920" type="line"/>
    </contour>
    <contour>
      <point x="208" y="-20" type="curve" smooth="yes"/>
      <point x="345" y="-20"/>
      <point x="426" y="170"/>
      <point x="426" y="486" type="curve" smooth="yes"/>
      <point x="426" y="800" type="line"/>
      <point x="314" y="800" type="line"/>
      <point x="314" y="559" type="line" smooth="yes"/>
      <point x="314" y="164"/>
      <point x="90" y="213"/>
      <point x="90" y="76" type="curve" smooth="yes"/>
      <point x="90" y="26"/>
      <point x="126" y="-20"/>
    </contour>
    <contour>
      <point x="876" y="-20" type="curve" smooth="yes"/>
      <point x="962" y="-20"/>
      <point x="1046" y="65"/>
      <point x="1092" y="206" type="curve"/>
      <point x="1045" y="234" type="line"/>
      <point x="1007" y="166"/>
      <point x="981" y="145"/>
      <point x="945" y="145" type="curve" smooth="yes"/>
      <point x="897" y="145"/>
      <point x="872" y="177"/>
      <point x="872" y="217" type="curve" smooth="yes"/>
      <point x="872" y="800" type="line"/>
      <point x="691" y="800" type="line"/>
      <point x="691" y="146" type="line" smooth="yes"/>
      <point x="691" y="28"/>
      <point x="782" y="-20"/>
    </contour>
  </outline>
</glyph>
<glyph name="perthousand" format="2">
  <advance width="2939"/>
  <unicode hex="2030"/>
  <outline>
    <contour>
      <point x="453" y="0" type="line"/>
      <point x="537" y="0" type="line"/>
      <point x="1547" y="1500" type="line"/>
      <point x="1463" y="1500" type="line"/>
    </contour>
    <contour>
      <point x="471" y="641" type="curve" smooth="yes"/>
      <point x="657" y="641"/>
      <point x="870" y="794"/>
      <point x="870" y="1080" type="curve" smooth="yes"/>
      <point x="870" y="1366"/>
      <point x="698" y="1520"/>
      <point x="471" y="1520" type="curve" smooth="yes"/>
      <point x="244" y="1520"/>
      <point x="70" y="1366"/>
      <point x="70" y="1080" type="curve" smooth="yes"/>
      <point x="70" y="794"/>
      <point x="244" y="641"/>
    </contour>
    <contour>
      <point x="471" y="713" type="curve" smooth="yes"/>
      <point x="323" y="713"/>
      <point x="290" y="876"/>
      <point x="290" y="1080" type="curve" smooth="yes"/>
      <point x="290" y="1284"/>
      <point x="323" y="1447"/>
      <point x="471" y="1447" type="curve" smooth="yes"/>
      <point x="619" y="1447"/>
      <point x="650" y="1284"/>
      <point x="650" y="1080" type="curve" smooth="yes"/>
      <point x="650" y="876"/>
      <point x="619" y="713"/>
    </contour>
    <contour>
      <point x="1529" y="-20" type="curve" smooth="yes"/>
      <point x="1715" y="-20"/>
      <point x="1930" y="134"/>
      <point x="1930" y="420" type="curve" smooth="yes"/>
      <point x="1930" y="706"/>
      <point x="1756" y="859"/>
      <point x="1529" y="859" type="curve" smooth="yes"/>
      <point x="1302" y="859"/>
      <point x="1130" y="706"/>
      <point x="1130" y="420" type="curve" smooth="yes"/>
      <point x="1130" y="134"/>
      <point x="1302" y="-20"/>
    </contour>
    <contour>
      <point x="1529" y="53" type="curve" smooth="yes"/>
      <point x="1381" y="53"/>
      <point x="1350" y="216"/>
      <point x="1350" y="420" type="curve" smooth="yes"/>
      <point x="1350" y="624"/>
      <point x="1381" y="787"/>
      <point x="1529" y="787" type="curve" smooth="yes"/>
      <point x="1677" y="787"/>
      <point x="1710" y="624"/>
      <point x="1710" y="420" type="curve" smooth="yes"/>
      <point x="1710" y="216"/>
      <point x="1677" y="53"/>
    </contour>
    <contour>
      <point x="2470" y="-20" type="curve" smooth="yes"/>
      <point x="2656" y="-20"/>
      <point x="2870" y="134"/>
      <point x="2870" y="420" type="curve" smooth="yes"/>
      <point x="2870" y="706"/>
      <point x="2697" y="859"/>
      <point x="2470" y="859" type="curve" smooth="yes"/>
      <point x="2243" y="859"/>
      <point x="2070" y="706"/>
      <point x="2070" y="420" type="curve" smooth="yes"/>
      <point x="2070" y="134"/>
      <point x="2243" y="-20"/>
    </contour>
    <contour>
      <point x="2470" y="53" type="curve" smooth="yes"/>
      <point x="2322" y="53"/>
      <point x="2290" y="216"/>
      <point x="2290" y="420" type="curve" smooth="yes"/>
      <point x="2290" y="624"/>
      <point x="2322" y="787"/>
      <point x="2470" y="787" type="curve" smooth="yes"/>
      <point x="2618" y="787"/>
      <point x="2650" y="624"/>
      <point x="2650" y="420" type="curve" smooth="yes"/>
      <point x="2650" y="216"/>
      <point x="2618" y="53"/>
    </contour>
  </outline>
</glyph>
<glyph name="interrobang" format="2">
  <advance width="1199"/>
  <unicode hex="203D"/>
  <outline>
    <contour>
      <point x="654" y="670" type="line"/>
      <point x="896" y="670"/>
      <point x="1141" y="860"/>
      <point x="1141" y="1100" type="curve" smooth="yes"/>
      <point x="1141" y="1360"/>
      <point x="954" y="1520"/>
      <point x="652" y="1520" type="curve" smooth="yes"/>
      <point x="328" y="1520"/>
      <point x="141" y="1266"/>
      <point x="141" y="1082" type="curve" smooth="yes"/>
      <point x="141" y="1000"/>
      <point x="193" y="958"/>
      <point x="254" y="958" type="curve" smooth="yes"/>
      <point x="304" y="958"/>
      <point x="368" y="990"/>
      <point x="368" y="1070" type="curve" smooth="yes"/>
      <point x="368" y="1140"/>
      <point x="313" y="1180"/>
      <point x="254" y="1180" type="curve" smooth="yes"/>
      <point x="248" y="1180"/>
      <point x="242" y="1180"/>
      <point x="235" y="1179" type="curve"/>
      <point x="284" y="1310"/>
      <point x="425" y="1443"/>
      <point x="605" y="1443" type="curve" smooth="yes"/>
      <point x="823" y="1443"/>
      <point x="958" y="1308"/>
      <point x="958" y="1120" type="curve" smooth="yes"/>
      <point x="958" y="934"/>
      <point x="828" y="757"/>
      <point x="654" y="736" type="curve"/>
    </contour>
    <contour>
      <point x="598" y="-20" type="curve" smooth="yes"/>
      <point x="664" y="-20"/>
      <point x="718" y="34"/>
      <point x="718" y="100" type="curve" smooth="yes"/>
      <point x="718" y="166"/>
      <point x="664" y="221"/>
      <point x="598" y="221" type="curve" smooth="yes"/>
      <point x="532" y="221"/>
      <point x="478" y="166"/>
      <point x="478" y="100" type="curve" smooth="yes"/>
      <point x="478" y="34"/>
      <point x="532" y="-20"/>
    </contour>
    <contour>
      <point x="558" y="416" type="curve"/>
      <point x="631" y="416" type="line"/>
      <point x="631" y="557"/>
      <point x="711" y="777"/>
      <point x="732" y="968" type="curve" smooth="yes"/>
      <point x="734" y="982"/>
      <point x="734" y="994"/>
      <point x="734" y="1006" type="curve" smooth="yes"/>
      <point x="734" y="1063"/>
      <point x="707" y="1156"/>
      <point x="613" y="1156" type="curve" smooth="yes"/>
      <point x="519" y="1156"/>
      <point x="494" y="1063"/>
      <point x="494" y="1006" type="curve" smooth="yes"/>
      <point x="494" y="994"/>
      <point x="494" y="982"/>
      <point x="496" y="968" type="curve" smooth="yes"/>
      <point x="517" y="777"/>
      <point x="558" y="557"/>
    </contour>
  </outline>
</glyph>
<glyph name="foursuperior" format="2">
  <advance width="781"/>
  <unicode hex="2074"/>
  <outline>
    <contour>
      <point x="362.4" y="919" type="line"/>
      <point x="680.4" y="919" type="line"/>
      <point x="680.4" y="962.8" type="line"/>
      <point x="590.4" y="962.8" type="line"/>
      <point x="590.4" y="1819" type="line"/>
      <point x="494.4" y="1819" type="line"/>
      <point x="55.8" y="1155.4" type="line"/>
      <point x="722.4" y="1155.4" type="line"/>
      <point x="722.4" y="1199.2" type="line"/>
      <point x="138" y="1199.2" type="line"/>
      <point x="476.4" y="1708.6" type="line"/>
      <point x="476.4" y="962.8" type="line"/>
      <point x="362.4" y="962.8" type="line"/>
    </contour>
  </outline>
</glyph>
<glyph name="infinity" format="2">
  <advance width="1813"/>
  <unicode hex="221E"/>
  <outline>
    <contour>
      <point x="1364" y="401" type="curve" smooth="yes"/>
      <point x="1132" y="401"/>
      <point x="991" y="600"/>
      <point x="857" y="780" type="curve" smooth="yes"/>
      <point x="754" y="918"/>
      <point x="612" y="1087"/>
      <point x="469" y="1087" type="curve" smooth="yes"/>
      <point x="296" y="1087"/>
      <point x="271" y="898"/>
      <point x="271" y="780" type="curve"/>
      <point x="70" y="780" type="line"/>
      <point x="70" y="970"/>
      <point x="177" y="1159"/>
      <point x="449" y="1159" type="curve" smooth="yes"/>
      <point x="681" y="1159"/>
      <point x="820" y="962"/>
      <point x="956" y="780" type="curve" smooth="yes"/>
      <point x="1058" y="643"/>
      <point x="1201" y="473"/>
      <point x="1344" y="473" type="curve" smooth="yes"/>
      <point x="1517" y="473"/>
      <point x="1542" y="662"/>
      <point x="1542" y="780" type="curve"/>
      <point x="1743" y="780" type="line"/>
      <point x="1743" y="590"/>
      <point x="1636" y="401"/>
    </contour>
    <contour>
      <point x="449" y="401" type="curve" smooth="yes"/>
      <point x="177" y="401"/>
      <point x="70" y="590"/>
      <point x="70" y="780" type="curve"/>
      <point x="271" y="780" type="line"/>
      <point x="271" y="662"/>
      <point x="296" y="473"/>
      <point x="469" y="473" type="curve" smooth="yes"/>
      <point x="612" y="473"/>
      <point x="755" y="643"/>
      <point x="857" y="780" type="curve" smooth="yes"/>
      <point x="993" y="962"/>
      <point x="1132" y="1159"/>
      <point x="1364" y="1159" type="curve" smooth="yes"/>
      <point x="1636" y="1159"/>
      <point x="1743" y="970"/>
      <point x="1743" y="780" type="curve"/>
      <point x="1542" y="780" type="line"/>
      <point x="1542" y="898"/>
      <point x="1517" y="1087"/>
      <point x="1344" y="1087" type="curve" smooth="yes"/>
      <point x="1201" y="1087"/>
      <point x="1059" y="918"/>
      <point x="956" y="780" type="curve" smooth="yes"/>
      <point x="822" y="600"/>
      <point x="681" y="401"/>
    </contour>
  </outline>
</glyph>
<glyph name="uniF8E8" format="2">
  <advance width="1279"/>
  <unicode hex="F8E8"/>
  <anchor x="650.96" y="857.6" name="bottom"/>
  <anchor x="514.16" y="857.6" name="cedilla"/>
  <anchor x="618.56" y="1397.6" name="top"/>
  <outline>
    <contour>
      <point x="629" y="668" type="curve" smooth="yes"/>
      <point x="884.6" y="668"/>
      <point x="1091.6" y="874.4"/>
      <point x="1091.6" y="1130" type="curve" smooth="yes"/>
      <point x="1091.6" y="1385.6"/>
      <point x="884.6" y="1592"/>
      <point x="629" y="1592" type="curve" smooth="yes"/>
      <point x="373.4" y="1592"/>
      <point x="167" y="1385.6"/>
      <point x="167" y="1130" type="curve" smooth="yes"/>
      <point x="167" y="874.4"/>
      <point x="373.4" y="668"/>
    </contour>
    <contour>
      <point x="402.8" y="857.6" type="line"/>
      <point x="629.6" y="857.6" type="line"/>
      <point x="629.6" y="884" type="line"/>
      <point x="402.8" y="884" type="line"/>
    </contour>
    <contour>
      <point x="482" y="857.6" type="line"/>
      <point x="550.4" y="857.6" type="line"/>
      <point x="550.4" y="1397.6" type="line"/>
      <point x="482" y="1397.6" type="line"/>
    </contour>
    <contour>
      <point x="816.8" y="854" type="curve" smooth="yes"/>
      <point x="842.6" y="854"/>
      <point x="869.6" y="858.8"/>
      <point x="881.6" y="865.4" type="curve"/>
      <point x="872.6" y="890" type="line"/>
      <point x="862.4" y="885.8"/>
      <point x="853.4" y="882.2"/>
      <point x="838.4" y="882.2" type="curve" smooth="yes"/>
      <point x="758.6" y="882.2"/>
      <point x="883.4" y="1126.4"/>
      <point x="651.2" y="1126.4" type="curve" smooth="yes"/>
      <point x="532.4" y="1126.4" type="line"/>
      <point x="532.4" y="1112.6" type="line"/>
      <point x="636.8" y="1112.6" type="line" smooth="yes"/>
      <point x="813.8" y="1112.6"/>
      <point x="648.8" y="854"/>
    </contour>
    <contour>
      <point x="629" y="711.8" type="curve" smooth="yes"/>
      <point x="396.8" y="711.8"/>
      <point x="211.4" y="897.8"/>
      <point x="211.4" y="1130" type="curve" smooth="yes"/>
      <point x="211.4" y="1362.2"/>
      <point x="396.8" y="1548.2"/>
      <point x="629" y="1548.2" type="curve" smooth="yes"/>
      <point x="861.2" y="1548.2"/>
      <point x="1046.6" y="1362.2"/>
      <point x="1046.6" y="1130" type="curve" smooth="yes"/>
      <point x="1046.6" y="897.8"/>
      <point x="861.2" y="711.8"/>
    </contour>
    <contour>
      <point x="532.4" y="1124" type="line"/>
      <point x="640.4" y="1124" type="line" smooth="yes"/>
      <point x="756.2" y="1124"/>
      <point x="820.4" y="1161.8"/>
      <point x="820.4" y="1255.4" type="curve" smooth="yes"/>
      <point x="820.4" y="1349"/>
      <point x="749" y="1397.6"/>
      <point x="640.4" y="1397.6" type="curve" smooth="yes"/>
      <point x="402.8" y="1397.6" type="line"/>
      <point x="402.8" y="1371.2" type="line"/>
      <point x="640.4" y="1371.2" type="line" smooth="yes"/>
      <point x="708.8" y="1371.2"/>
      <point x="748.4" y="1334"/>
      <point x="748.4" y="1255.4" type="curve" smooth="yes"/>
      <point x="748.4" y="1176.8"/>
      <point x="708.8" y="1139"/>
      <point x="640.4" y="1139" type="curve" smooth="yes"/>
      <point x="532.4" y="1139" type="line"/>
    </contour>
  </outline>
</glyph>
<glyph name="a.sc" format="2">
  <advance width="1199"/>
  <anchor x="570" y="0" name="bottom"/>
  <anchor x="967" y="0" name="ogonek"/>
  <anchor x="638" y="1010" name="top"/>
  <outline>
    <contour>
      <point x="98" y="0" type="line"/>
      <point x="182" y="0" type="line"/>
      <point x="539" y="814" type="line"/>
      <point x="884" y="0" type="line"/>
      <point x="1105" y="0" type="line"/>
      <point x="645" y="1039" type="line"/>
      <point x="570" y="1039" type="line"/>
    </contour>
    <contour>
      <point x="0" y="0" type="line"/>
      <point x="360" y="0" type="line"/>
      <point x="360" y="73" type="line"/>
      <point x="0" y="73" type="line"/>
    </contour>
    <contour>
      <point x="295" y="293" type="line"/>
      <point x="915" y="293" type="line"/>
      <point x="915" y="366" type="line"/>
      <point x="295" y="366" type="line"/>
    </contour>
    <contour>
      <point x="699" y="0" type="line"/>
      <point x="1199" y="0" type="line"/>
      <point x="1199" y="73" type="line"/>
      <point x="699" y="73" type="line"/>
    </contour>
  </outline>
</glyph>
<glyph name="j.sc" format="2">
  <advance width="857"/>
  <outline>
    <contour>
      <point x="272" y="-20" type="curve" smooth="yes"/>
      <point x="494" y="-20"/>
      <point x="592" y="180"/>
      <point x="642" y="311" type="curve"/>
      <point x="642" y="1020" type="line"/>
      <point x="452" y="1020" type="line"/>
      <point x="452" y="500" type="line" smooth="yes"/>
      <point x="452" y="221"/>
      <point x="434" y="53"/>
      <point x="272" y="53" type="curve" smooth="yes"/>
      <point x="148" y="53"/>
      <point x="75" y="120"/>
      <point x="75" y="220" type="curve"/>
      <point x="2" y="220" type="line"/>
      <point x="2" y="180"/>
      <point x="98" y="127"/>
      <point x="153" y="127" type="curve" smooth="yes"/>
      <point x="221" y="127"/>
      <point x="286" y="182"/>
      <point x="286" y="252" type="curve" smooth="yes"/>
      <point x="286" y="344"/>
      <point x="218" y="380"/>
      <point x="148" y="380" type="curve" smooth="yes"/>
      <point x="68" y="380"/>
      <point x="0" y="314"/>
      <point x="0" y="220" type="curve" smooth="yes"/>
      <point x="0" y="79"/>
      <point x="108" y="-20"/>
    </contour>
    <contour>
      <point x="212" y="947" type="line"/>
      <point x="792" y="947" type="line"/>
      <point x="792" y="1020" type="line"/>
      <point x="212" y="1020" type="line"/>
    </contour>
  </outline>
</glyph>
<glyph name="k.sc" format="2">
  <advance width="1205"/>
  <anchor x="627" y="0" name="bottom"/>
  <anchor x="307" y="0" name="cedilla"/>
  <anchor x="655" y="1020" name="top"/>
  <outline>
    <contour>
      <point x="229" y="244" type="line"/>
      <point x="334" y="244" type="line"/>
      <point x="1062" y="1016" type="line"/>
      <point x="957" y="1016" type="line"/>
    </contour>
    <contour>
      <point x="85" y="0" type="line"/>
      <point x="555" y="0" type="line"/>
      <point x="555" y="73" type="line"/>
      <point x="85" y="73" type="line"/>
    </contour>
    <contour>
      <point x="216" y="0" type="line"/>
      <point x="406" y="0" type="line"/>
      <point x="406" y="1020" type="line"/>
      <point x="216" y="1020" type="line"/>
    </contour>
    <contour>
      <point x="685" y="0" type="line"/>
      <point x="1185" y="0" type="line"/>
      <point x="1185" y="73" type="line"/>
      <point x="685" y="73" type="line"/>
    </contour>
    <contour>
      <point x="859" y="0" type="line"/>
      <point x="1099" y="0" type="line"/>
      <point x="671" y="706" type="line"/>
      <point x="543" y="559" type="line"/>
    </contour>
    <contour>
      <point x="85" y="947" type="line"/>
      <point x="555" y="947" type="line"/>
      <point x="555" y="1020" type="line"/>
      <point x="85" y="1020" type="line"/>
    </contour>
    <contour>
      <point x="765" y="947" type="line"/>
      <point x="1146" y="947" type="line"/>
      <point x="1146" y="1020" type="line"/>
      <point x="765" y="1020" type="line"/>
    </contour>
  </outline>
</glyph>
<glyph name="nine.tosf" format="2">
  <advance width="1160"/>
  <outline>
    <contour>
      <point x="230" y="-519.961" type="line"/>
      <point x="675" y="-519.961"/>
      <point x="1040" y="-127.468"/>
      <point x="1040" y="333.284" type="curve" smooth="yes"/>
      <point x="1040" y="731.465"/>
      <point x="854" y="940.036"/>
      <point x="552" y="940.036" type="curve" smooth="yes"/>
      <point x="250" y="940.036"/>
      <point x="79" y="731.465"/>
      <point x="79" y="447.05" type="curve" smooth="yes"/>
      <point x="79" y="124.713"/>
      <point x="316" y="-8.014"/>
      <point x="518" y="-8.014" type="curve" smooth="yes"/>
      <point x="780" y="-8.014"/>
      <point x="902" y="167.375"/>
      <point x="902" y="389.219" type="curve"/>
      <point x="840" y="389.219" type="line"/>
      <point x="840" y="179.7"/>
      <point x="728" y="78.259"/>
      <point x="562" y="78.259" type="curve" smooth="yes"/>
      <point x="384" y="78.259"/>
      <point x="281" y="192.973"/>
      <point x="281" y="447.05" type="curve" smooth="yes"/>
      <point x="281" y="664.153"/>
      <point x="328" y="870.828"/>
      <point x="546" y="870.828" type="curve" smooth="yes"/>
      <point x="764" y="870.828"/>
      <point x="840" y="643.296"/>
      <point x="840" y="389.219" type="curve"/>
      <point x="829" y="219.518" type="line"/>
      <point x="829" y="-106.611"/>
      <point x="578" y="-456.442"/>
      <point x="230" y="-456.442" type="curve"/>
    </contour>
  </outline>
</glyph>
<glyph name="seven.tosf" format="2">
  <advance width="1160"/>
  <outline>
    <contour>
      <point x="544" y="-519.947" type="curve" smooth="yes"/>
      <point x="632" y="-519.947"/>
      <point x="672" y="-461.21"/>
      <point x="672" y="-391.105" type="curve" smooth="yes"/>
      <point x="672" y="-303.947"/>
      <point x="586" y="-275.526"/>
      <point x="586" y="-137.21" type="curve" smooth="yes"/>
      <point x="586" y="-53.841"/>
      <point x="602" y="18.159"/>
      <point x="694" y="196.264" type="curve" smooth="yes"/>
      <point x="831" y="458.686"/>
      <point x="1066" y="920.055"/>
      <point x="1066" y="920.055" type="curve"/>
      <point x="156" y="920.055" type="line"/>
      <point x="156" y="597.949" type="line"/>
      <point x="229" y="597.949" type="line"/>
      <point x="229" y="741.002" type="line"/>
      <point x="888" y="741.002" type="line"/>
      <point x="806" y="576.16"/>
      <point x="684" y="338.37"/>
      <point x="606" y="196.264" type="curve" smooth="yes"/>
      <point x="495" y="-10.262"/>
      <point x="412" y="-207.315"/>
      <point x="412" y="-357" type="curve" smooth="yes"/>
      <point x="412" y="-488.684"/>
      <point x="466" y="-519.947"/>
    </contour>
  </outline>
</glyph>
